<svg width="23" height="22" viewBox="0 0 23 22" fill="none" xmlns="http://www.w3.org/2000/svg">
<g clip-path="url(#clip0_510_1646)">
<path d="M21.1299 7.63826L18.0293 2.87898C17.6641 2.14729 16.571 1.7821 15.8419 1.7821H5.99101C5.26185 1.7821 4.16746 2.33054 3.80353 2.87898L0.705599 7.63826C0.340364 8.36995 0.340364 9.28489 0.889531 9.83464L10.0073 19.5325C10.5538 20.0836 11.283 19.899 11.8295 19.5325L20.9473 9.83464C21.4964 9.28489 21.6777 8.18669 21.1312 7.63826H21.1299ZM16.3884 6.17488L11.2817 14.4094H8.72896L7.81587 6.90525C7.81587 6.53875 7.63457 6.35681 7.63457 6.17488C7.45064 5.99031 7.26933 5.99031 7.08671 5.99031L7.27065 5.62512H9.63942C9.82073 5.62512 10.0047 5.62512 10.186 5.80969C10.3699 5.99031 10.3699 6.17488 10.3699 6.35681L10.9151 11.6632L13.6518 6.722V6.35549C13.6518 6.17356 13.6518 6.17356 13.4691 5.98899C13.2852 5.98899 13.2852 5.80706 13.1052 5.80706L13.2865 5.44055H16.0219C16.2032 5.44055 16.3871 5.44055 16.3871 5.6238C16.3871 5.80837 16.5684 5.98899 16.3871 6.17356H16.3884V6.17488Z" fill="url(#paint0_linear_510_1646)"/>
</g>
<defs>
<linearGradient id="paint0_linear_510_1646" x1="10.9563" y1="1.7821" x2="10.9563" y2="19.88" gradientUnits="userSpaceOnUse">
<stop stop-color="#FFCA5B"/>
<stop offset="1" stop-color="#D79100"/>
</linearGradient>
<clipPath id="clip0_510_1646">
<rect width="22.3346" height="21.0938" fill="white" transform="translate(0.325195 0.765625)"/>
</clipPath>
</defs>
</svg>
